<?xml version="1.0" encoding="utf-8"?>
<svg version="1.1" xmlns:xlink="http://www.w3.org/1999/xlink" width="14px" height="14px" xmlns="http://www.w3.org/2000/svg">
  <g transform="matrix(1 0 0 1 -340 -37 )">
    <path d="M 347 38  C 350.36 38  353 40.64  353 44  C 353 47.36  350.36 50  347 50  C 343.64 50  341 47.36  341 44  C 341 40.64  343.64 38  347 38  Z " fill-rule="nonzero" fill="#0d0d51" stroke="none" />
    <path d="M 347 38  C 350.36 38  353 40.64  353 44  C 353 47.36  350.36 50  347 50  C 343.64 50  341 47.36  341 44  C 341 40.64  343.64 38  347 38  Z " stroke-width="2" stroke="#ffffff" fill="none" />
  </g>
</svg>