<?xml version="1.0" encoding="utf-8"?>
<svg version="1.1" xmlns:xlink="http://www.w3.org/1999/xlink" width="8px" height="30px" xmlns="http://www.w3.org/2000/svg">
  <g transform="matrix(1 0 0 1 -87 -1718 )">
    <path d="M 7.41666666666667 22.4147727272727  C 7.80555555555555 22.8125  8 23.2954545454545  8 23.8636363636364  L 8 27.9545454545455  C 8 28.5227272727273  7.80555555555555 29.0056818181818  7.41666666666667 29.4034090909091  C 7.02777777777778 29.8011363636364  6.55555555555556 30  6 30  L 2 30  C 1.44444444444444 30  0.972222222222222 29.8011363636364  0.583333333333333 29.4034090909091  C 0.194444444444444 29.0056818181818  0 28.5227272727273  0 27.9545454545455  L 0 23.8636363636364  C 0 23.2954545454545  0.194444444444444 22.8125  0.583333333333333 22.4147727272727  C 0.972222222222222 22.0170454545455  1.44444444444444 21.8181818181818  2 21.8181818181818  L 6 21.8181818181818  C 6.55555555555556 21.8181818181818  7.02777777777778 22.0170454545455  7.41666666666667 22.4147727272727  Z M 7.41666666666667 11.5056818181818  C 7.80555555555555 11.9034090909091  8 12.3863636363636  8 12.9545454545455  L 8 17.0454545454545  C 8 17.6136363636364  7.80555555555555 18.0965909090909  7.41666666666667 18.4943181818182  C 7.02777777777778 18.8920454545455  6.55555555555556 19.0909090909091  6 19.0909090909091  L 2 19.0909090909091  C 1.44444444444444 19.0909090909091  0.972222222222222 18.8920454545455  0.583333333333333 18.4943181818182  C 0.194444444444444 18.0965909090909  0 17.6136363636364  0 17.0454545454545  L 0 12.9545454545455  C 0 12.3863636363636  0.194444444444444 11.9034090909091  0.583333333333333 11.5056818181818  C 0.972222222222222 11.1079545454545  1.44444444444444 10.9090909090909  2 10.9090909090909  L 6 10.9090909090909  C 6.55555555555556 10.9090909090909  7.02777777777778 11.1079545454545  7.41666666666667 11.5056818181818  Z M 7.41666666666667 0.596590909090909  C 7.80555555555555 0.99431818181818  8 1.47727272727273  8 2.04545454545455  L 8 6.13636363636364  C 8 6.70454545454545  7.80555555555555 7.1875  7.41666666666667 7.58522727272727  C 7.02777777777778 7.98295454545454  6.55555555555556 8.18181818181818  6 8.18181818181818  L 2 8.18181818181818  C 1.44444444444444 8.18181818181818  0.972222222222222 7.98295454545454  0.583333333333333 7.58522727272727  C 0.194444444444444 7.1875  0 6.70454545454545  0 6.13636363636364  L 0 2.04545454545455  C 0 1.47727272727273  0.194444444444444 0.99431818181818  0.583333333333333 0.596590909090909  C 0.972222222222222 0.198863636363635  1.44444444444444 0  2 0  L 6 0  C 6.55555555555556 0  7.02777777777778 0.198863636363635  7.41666666666667 0.596590909090909  Z " fill-rule="nonzero" fill="#000000" stroke="none" transform="matrix(1 0 0 1 87 1718 )" />
  </g>
</svg>