<?xml version="1.0" encoding="utf-8"?>
<svg version="1.1" xmlns:xlink="http://www.w3.org/1999/xlink" width="12px" height="12px" viewBox="438 925  12 12" xmlns="http://www.w3.org/2000/svg">
  <path d="M 444 925  C 447.36 925  450 927.64  450 931  C 450 934.36  447.36 937  444 937  C 440.64 937  438 934.36  438 931  C 438 927.64  440.64 925  444 925  Z " fill-rule="nonzero" fill="#ffffff" stroke="none" />
  <path d="M 444 925.5  C 447.08 925.5  449.5 927.92  449.5 931  C 449.5 934.08  447.08 936.5  444 936.5  C 440.92 936.5  438.5 934.08  438.5 931  C 438.5 927.92  440.92 925.5  444 925.5  Z " stroke-width="1" stroke="#797979" fill="none" />
  <path d="M 444 934  C 442.32 934  441 932.68  441 931  C 441 929.32  442.32 928  444 928  C 445.68 928  447 929.32  447 931  C 447 932.68  445.68 934  444 934  " fill-rule="nonzero" fill="#797979" stroke="none" />
</svg>