<?xml version="1.0" encoding="utf-8"?>
<svg version="1.1" xmlns:xlink="http://www.w3.org/1999/xlink" width="12px" height="12px" viewBox="438 883  12 12" xmlns="http://www.w3.org/2000/svg">
  <path d="M 444 883  C 447.36 883  450 885.64  450 889  C 450 892.36  447.36 895  444 895  C 440.64 895  438 892.36  438 889  C 438 885.64  440.64 883  444 883  Z " fill-rule="nonzero" fill="#ffffff" stroke="none" />
  <path d="M 444 883.5  C 447.08 883.5  449.5 885.92  449.5 889  C 449.5 892.08  447.08 894.5  444 894.5  C 440.92 894.5  438.5 892.08  438.5 889  C 438.5 885.92  440.92 883.5  444 883.5  Z " stroke-width="1" stroke="#797979" fill="none" />
  <path d="M 444 892  C 442.32 892  441 890.68  441 889  C 441 887.32  442.32 886  444 886  C 445.68 886  447 887.32  447 889  C 447 890.68  445.68 892  444 892  " fill-rule="nonzero" fill="#797979" stroke="none" />
</svg>