<?xml version="1.0" encoding="utf-8"?>
<svg version="1.1" xmlns:xlink="http://www.w3.org/1999/xlink" width="12px" height="12px" viewBox="438 840  12 12" xmlns="http://www.w3.org/2000/svg">
  <path d="M 444 840  C 447.36 840  450 842.64  450 846  C 450 849.36  447.36 852  444 852  C 440.64 852  438 849.36  438 846  C 438 842.64  440.64 840  444 840  Z " fill-rule="nonzero" fill="#f0f0f0" stroke="none" />
  <path d="M 444 840.5  C 447.08 840.5  449.5 842.92  449.5 846  C 449.5 849.08  447.08 851.5  444 851.5  C 440.92 851.5  438.5 849.08  438.5 846  C 438.5 842.92  440.92 840.5  444 840.5  Z " stroke-width="1" stroke="#797979" fill="none" />
  <path d="M 444 849  C 442.32 849  441 847.68  441 846  C 441 844.32  442.32 843  444 843  C 445.68 843  447 844.32  447 846  C 447 847.68  445.68 849  444 849  " fill-rule="nonzero" fill="#797979" stroke="none" />
</svg>