<?xml version="1.0" encoding="utf-8"?>
<svg version="1.1" xmlns:xlink="http://www.w3.org/1999/xlink" width="331px" height="104px" xmlns="http://www.w3.org/2000/svg">
  <g transform="matrix(1 0 0 1 -431 -1184 )">
    <path d="M 432 1188  A 3 3 0 0 1 435 1185 L 758 1185  A 3 3 0 0 1 761 1188 L 761 1284  A 3 3 0 0 1 758 1287 L 435 1287  A 3 3 0 0 1 432 1284 L 432 1188  Z " fill-rule="nonzero" fill="#000000" stroke="none" fill-opacity="0.0196078431372549" />
    <path d="M 431.5 1188  A 3.5 3.5 0 0 1 435 1184.5 L 758 1184.5  A 3.5 3.5 0 0 1 761.5 1188 L 761.5 1284  A 3.5 3.5 0 0 1 758 1287.5 L 435 1287.5  A 3.5 3.5 0 0 1 431.5 1284 L 431.5 1188  Z " stroke-width="1" stroke-dasharray="9,4" stroke="#d9d9d9" fill="none" stroke-dashoffset="0.5" />
  </g>
</svg>