<?xml version="1.0" encoding="utf-8"?>
<svg version="1.1" xmlns:xlink="http://www.w3.org/1999/xlink" width="14px" height="14px" xmlns="http://www.w3.org/2000/svg">
  <g transform="matrix(1 0 0 1 -403 -80 )">
    <path d="M 410 81  C 413.36 81  416 83.64  416 87  C 416 90.36  413.36 93  410 93  C 406.64 93  404 90.36  404 87  C 404 83.64  406.64 81  410 81  Z " fill-rule="nonzero" fill="#0d0d51" stroke="none" />
    <path d="M 410 81  C 413.36 81  416 83.64  416 87  C 416 90.36  413.36 93  410 93  C 406.64 93  404 90.36  404 87  C 404 83.64  406.64 81  410 81  Z " stroke-width="2" stroke="#ffffff" fill="none" />
  </g>
</svg>