<?xml version="1.0" encoding="utf-8"?>
<svg version="1.1" xmlns:xlink="http://www.w3.org/1999/xlink" width="375px" height="70px" xmlns="http://www.w3.org/2000/svg">
  <defs>
    <mask fill="white" id="clip1">
      <path d="M 0 63  L 0 7  C 0 3.08000000000006  2.19999999999999 0  5 0  L 370 0  C 372.8 0  375 3.08000000000006  375 7  L 375 63  C 375 66.9199999999999  372.8 70  370 70  L 174.592592592592 70  L 5 70  C 2.19999999999999 70  0 66.9199999999999  0 63  Z " fill-rule="evenodd" />
    </mask>
  </defs>
  <g transform="matrix(1 0 0 1 -529 -660 )">
    <path d="M 0 63  L 0 7  C 0 3.08000000000006  2.19999999999999 0  5 0  L 370 0  C 372.8 0  375 3.08000000000006  375 7  L 375 63  C 375 66.9199999999999  372.8 70  370 70  L 174.592592592592 70  L 5 70  C 2.19999999999999 70  0 66.9199999999999  0 63  Z " fill-rule="nonzero" fill="#ffffff" stroke="none" transform="matrix(1 0 0 1 529 660 )" />
    <path d="M 0 63  L 0 7  C 0 3.08000000000006  2.19999999999999 0  5 0  L 370 0  C 372.8 0  375 3.08000000000006  375 7  L 375 63  C 375 66.9199999999999  372.8 70  370 70  L 174.592592592592 70  L 5 70  C 2.19999999999999 70  0 66.9199999999999  0 63  Z " stroke-width="2" stroke="#797979" fill="none" transform="matrix(1 0 0 1 529 660 )" mask="url(#clip1)" />
  </g>
</svg>