<?xml version="1.0" encoding="utf-8"?>
<svg version="1.1" xmlns:xlink="http://www.w3.org/1999/xlink" width="70px" height="25px" xmlns="http://www.w3.org/2000/svg">
  <g transform="matrix(1 0 0 1 -581 -547 )">
    <path d="M 582 555  A 7 7 0 0 1 589 548 L 643 548  A 7 7 0 0 1 650 555 L 650 564  A 7 7 0 0 1 643 571 L 589 571  A 7 7 0 0 1 582 564 L 582 555  Z " fill-rule="nonzero" fill="#0079fe" stroke="none" />
    <path d="M 581.5 555  A 7.5 7.5 0 0 1 589 547.5 L 643 547.5  A 7.5 7.5 0 0 1 650.5 555 L 650.5 564  A 7.5 7.5 0 0 1 643 571.5 L 589 571.5  A 7.5 7.5 0 0 1 581.5 564 L 581.5 555  Z " stroke-width="1" stroke="#0079fe" fill="none" stroke-opacity="0.654901960784314" />
  </g>
</svg>