<?xml version="1.0" encoding="utf-8"?>
<svg version="1.1" xmlns:xlink="http://www.w3.org/1999/xlink" width="331px" height="104px" xmlns="http://www.w3.org/2000/svg">
  <g transform="matrix(1 0 0 1 -568 -1667 )">
    <path d="M 569 1671  A 3 3 0 0 1 572 1668 L 895 1668  A 3 3 0 0 1 898 1671 L 898 1767  A 3 3 0 0 1 895 1770 L 572 1770  A 3 3 0 0 1 569 1767 L 569 1671  Z " fill-rule="nonzero" fill="#000000" stroke="none" fill-opacity="0.0196078431372549" />
    <path d="M 568.5 1671  A 3.5 3.5 0 0 1 572 1667.5 L 895 1667.5  A 3.5 3.5 0 0 1 898.5 1671 L 898.5 1767  A 3.5 3.5 0 0 1 895 1770.5 L 572 1770.5  A 3.5 3.5 0 0 1 568.5 1767 L 568.5 1671  Z " stroke-width="1" stroke-dasharray="9,4" stroke="#d9d9d9" fill="none" stroke-dashoffset="0.5" />
  </g>
</svg>