<?xml version="1.0" encoding="utf-8"?>
<svg version="1.1" xmlns:xlink="http://www.w3.org/1999/xlink" width="30px" height="30px" xmlns="http://www.w3.org/2000/svg">
  <g transform="matrix(1 0 0 1 -488 -999 )">
    <path d="M 503 1000  C 510.84 1000  517 1006.16  517 1014  C 517 1021.84  510.84 1028  503 1028  C 495.16 1028  489 1021.84  489 1014  C 489 1006.16  495.16 1000  503 1000  Z " fill-rule="nonzero" fill="#0079fe" stroke="none" />
    <path d="M 503 1000  C 510.84 1000  517 1006.16  517 1014  C 517 1021.84  510.84 1028  503 1028  C 495.16 1028  489 1021.84  489 1014  C 489 1006.16  495.16 1000  503 1000  Z " stroke-width="2" stroke="#0079fe" fill="none" />
  </g>
</svg>