<?xml version="1.0" encoding="utf-8"?>
<svg version="1.1" xmlns:xlink="http://www.w3.org/1999/xlink" width="30px" height="30px" xmlns="http://www.w3.org/2000/svg">
  <g transform="matrix(1 0 0 1 -490 -1192 )">
    <path d="M 505 1193  C 512.84 1193  519 1199.16  519 1207  C 519 1214.84  512.84 1221  505 1221  C 497.16 1221  491 1214.84  491 1207  C 491 1199.16  497.16 1193  505 1193  Z " fill-rule="nonzero" fill="#ffffff" stroke="none" />
    <path d="M 505 1193  C 512.84 1193  519 1199.16  519 1207  C 519 1214.84  512.84 1221  505 1221  C 497.16 1221  491 1214.84  491 1207  C 491 1199.16  497.16 1193  505 1193  Z " stroke-width="2" stroke="#e4e4e4" fill="none" />
  </g>
</svg>