<?xml version="1.0" encoding="utf-8"?>
<svg version="1.1" xmlns:xlink="http://www.w3.org/1999/xlink" width="488px" height="142px" xmlns="http://www.w3.org/2000/svg">
  <g transform="matrix(1 0 0 1 -605 -653 )">
    <path d="M 606 657  A 3 3 0 0 1 609 654 L 1089 654  A 3 3 0 0 1 1092 657 L 1092 791  A 3 3 0 0 1 1089 794 L 609 794  A 3 3 0 0 1 606 791 L 606 657  Z " fill-rule="nonzero" fill="#000000" stroke="none" fill-opacity="0.0196078431372549" />
    <path d="M 605.5 657  A 3.5 3.5 0 0 1 609 653.5 L 1089 653.5  A 3.5 3.5 0 0 1 1092.5 657 L 1092.5 791  A 3.5 3.5 0 0 1 1089 794.5 L 609 794.5  A 3.5 3.5 0 0 1 605.5 791 L 605.5 657  Z " stroke-width="1" stroke-dasharray="9,4" stroke="#d9d9d9" fill="none" stroke-dashoffset="0.5" />
  </g>
</svg>