<?xml version="1.0" encoding="utf-8"?>
<svg version="1.1" xmlns:xlink="http://www.w3.org/1999/xlink" width="89px" height="25px" xmlns="http://www.w3.org/2000/svg">
  <g transform="matrix(1 0 0 1 -1032 -804 )">
    <path d="M 1033 812  A 7 7 0 0 1 1040 805 L 1113 805  A 7 7 0 0 1 1120 812 L 1120 821  A 7 7 0 0 1 1113 828 L 1040 828  A 7 7 0 0 1 1033 821 L 1033 812  Z " fill-rule="nonzero" fill="#0079fe" stroke="none" />
    <path d="M 1032.5 812  A 7.5 7.5 0 0 1 1040 804.5 L 1113 804.5  A 7.5 7.5 0 0 1 1120.5 812 L 1120.5 821  A 7.5 7.5 0 0 1 1113 828.5 L 1040 828.5  A 7.5 7.5 0 0 1 1032.5 821 L 1032.5 812  Z " stroke-width="1" stroke="#0079fe" fill="none" stroke-opacity="0.654901960784314" />
  </g>
</svg>