<?xml version="1.0" encoding="utf-8"?>
<svg version="1.1" xmlns:xlink="http://www.w3.org/1999/xlink" width="89px" height="25px" xmlns="http://www.w3.org/2000/svg">
  <g transform="matrix(1 0 0 1 -878 -817 )">
    <path d="M 879 825  A 7 7 0 0 1 886 818 L 959 818  A 7 7 0 0 1 966 825 L 966 834  A 7 7 0 0 1 959 841 L 886 841  A 7 7 0 0 1 879 834 L 879 825  Z " fill-rule="nonzero" fill="#0079fe" stroke="none" />
    <path d="M 878.5 825  A 7.5 7.5 0 0 1 886 817.5 L 959 817.5  A 7.5 7.5 0 0 1 966.5 825 L 966.5 834  A 7.5 7.5 0 0 1 959 841.5 L 886 841.5  A 7.5 7.5 0 0 1 878.5 834 L 878.5 825  Z " stroke-width="1" stroke="#0079fe" fill="none" stroke-opacity="0.654901960784314" />
  </g>
</svg>