<?xml version="1.0" encoding="utf-8"?>
<svg version="1.1" xmlns:xlink="http://www.w3.org/1999/xlink" width="331px" height="104px" xmlns="http://www.w3.org/2000/svg">
  <g transform="matrix(1 0 0 1 -13 -1939 )">
    <path d="M 14 1943  A 3 3 0 0 1 17 1940 L 340 1940  A 3 3 0 0 1 343 1943 L 343 2039  A 3 3 0 0 1 340 2042 L 17 2042  A 3 3 0 0 1 14 2039 L 14 1943  Z " fill-rule="nonzero" fill="#000000" stroke="none" fill-opacity="0.0196078431372549" />
    <path d="M 13.5 1943  A 3.5 3.5 0 0 1 17 1939.5 L 340 1939.5  A 3.5 3.5 0 0 1 343.5 1943 L 343.5 2039  A 3.5 3.5 0 0 1 340 2042.5 L 17 2042.5  A 3.5 3.5 0 0 1 13.5 2039 L 13.5 1943  Z " stroke-width="1" stroke-dasharray="9,4" stroke="#d9d9d9" fill="none" stroke-dashoffset="0.5" />
  </g>
</svg>