<?xml version="1.0" encoding="utf-8"?>
<svg version="1.1" xmlns:xlink="http://www.w3.org/1999/xlink" width="14px" height="14px" xmlns="http://www.w3.org/2000/svg">
  <g transform="matrix(1 0 0 1 -797 -51 )">
    <path d="M 804 52  C 807.36 52  810 54.64  810 58  C 810 61.36  807.36 64  804 64  C 800.64 64  798 61.36  798 58  C 798 54.64  800.64 52  804 52  Z " fill-rule="nonzero" fill="#0d0d51" stroke="none" />
    <path d="M 804 52  C 807.36 52  810 54.64  810 58  C 810 61.36  807.36 64  804 64  C 800.64 64  798 61.36  798 58  C 798 54.64  800.64 52  804 52  Z " stroke-width="2" stroke="#ffffff" fill="none" />
  </g>
</svg>