<?xml version="1.0" encoding="utf-8"?>
<svg version="1.1" xmlns:xlink="http://www.w3.org/1999/xlink" width="80px" height="35px" xmlns="http://www.w3.org/2000/svg">
  <g transform="matrix(1 0 0 1 -726 -172 )">
    <path d="M 726.5 177  A 4.5 4.5 0 0 1 731 172.5 L 801 172.5  A 4.5 4.5 0 0 1 805.5 177 L 805.5 202  A 4.5 4.5 0 0 1 801 206.5 L 731 206.5  A 4.5 4.5 0 0 1 726.5 202 L 726.5 177  Z " fill-rule="nonzero" fill="#f0f7ff" stroke="none" />
    <path d="M 726.5 177  A 4.5 4.5 0 0 1 731 172.5 L 801 172.5  A 4.5 4.5 0 0 1 805.5 177 L 805.5 202  A 4.5 4.5 0 0 1 801 206.5 L 731 206.5  A 4.5 4.5 0 0 1 726.5 202 L 726.5 177  Z " stroke-width="1" stroke="#409eff" fill="none" />
  </g>
</svg>