<?xml version="1.0" encoding="utf-8"?>
<svg version="1.1" xmlns:xlink="http://www.w3.org/1999/xlink" width="14px" height="16px" xmlns="http://www.w3.org/2000/svg">
  <g transform="matrix(1 0 0 1 -43 -222 )">
    <path d="M 7 15.2857142857143  C 7.08974358974359 15.2857142857143  7.13461538461539 15.2380952380952  7.13461538461538 15.1428571428571  C 7.13461538461539 15.047619047619  7.08974358974359 15  7 15  C 6.66907051282051 15  6.38441506410257 14.8735119047619  6.14603365384615 14.6205357142857  C 5.90765224358974 14.3675595238095  5.78846153846154 14.0654761904762  5.78846153846154 13.7142857142857  C 5.78846153846154 13.6190476190476  5.74358974358974 13.5714285714286  5.65384615384615 13.5714285714286  C 5.56410256410256 13.5714285714286  5.51923076923077 13.6190476190476  5.51923076923077 13.7142857142857  C 5.51923076923077 14.1488095238095  5.66366185897436 14.5193452380952  5.95252403846154 14.8258928571429  C 6.24138621794872 15.1324404761905  6.59054487179487 15.2857142857143  7 15.2857142857143  Z M 13.234375 11.7857142857143  C 13.464342948718 12.0595238095238  13.7195512820513 12.3214285714286  14 12.5714285714286  C 14 12.8809523809524  13.8934294871795 13.1488095238095  13.6802884615385 13.375  C 13.4671474358974 13.6011904761905  13.2147435897436 13.7142857142857  12.9230769230769 13.7142857142857  L 9.15384615384615 13.7142857142857  C 9.15384615384615 14.3452380952381  8.94350961538462 14.8839285714286  8.52283653846154 15.3303571428571  C 8.10216346153846 15.7767857142857  7.59455128205128 16  7 16  C 6.40544871794872 16  5.89783653846154 15.7767857142857  5.47716346153846 15.3303571428571  C 5.05649038461539 14.8839285714286  4.84615384615385 14.3452380952381  4.84615384615385 13.7142857142857  L 1.07692307692308 13.7142857142857  C 0.78525641025641 13.7142857142857  0.532852564102564 13.6011904761905  0.319711538461538 13.375  C 0.106570512820513 13.1488095238095  0 12.8809523809524  0 12.5714285714286  C 0.280448717948718 12.3214285714286  0.535657051282051 12.0595238095238  0.765625 11.7857142857143  C 0.995592948717949 11.5119047619048  1.23397435897436 11.15625  1.48076923076923 10.71875  C 1.7275641025641 10.28125  1.9364983974359 9.80952380952381  2.10757211538462 9.30357142857143  C 2.27864583333333 8.79761904761905  2.41887019230769 8.18452380952381  2.52824519230769 7.46428571428571  C 2.63762019230769 6.74404761904762  2.69230769230769 5.97023809523809  2.69230769230769 5.14285714285714  C 2.69230769230769 4.23809523809524  3.02043269230769 3.39732142857143  3.67668269230769 2.62053571428571  C 4.33293269230769 1.84375  5.19391025641026 1.37202380952381  6.25961538461539 1.20535714285714  C 6.21474358974359 1.0922619047619  6.19230769230769 0.976190476190476  6.19230769230769 0.857142857142858  C 6.19230769230769 0.619047619047619  6.27083333333333 0.416666666666666  6.42788461538461 0.25  C 6.5849358974359 0.0833333333333339  6.77564102564103 0  7 0  C 7.22435897435898 0  7.4150641025641 0.0833333333333339  7.57211538461538 0.25  C 7.72916666666667 0.416666666666666  7.80769230769231 0.619047619047619  7.80769230769231 0.857142857142858  C 7.80769230769231 0.976190476190476  7.78525641025641 1.0922619047619  7.74038461538462 1.20535714285714  C 8.80608974358974 1.37202380952381  9.66706730769231 1.84375  10.3233173076923 2.62053571428571  C 10.9795673076923 3.39732142857143  11.3076923076923 4.23809523809524  11.3076923076923 5.14285714285714  C 11.3076923076923 5.97023809523809  11.3623798076923 6.74404761904762  11.4717548076923 7.46428571428571  C 11.5811298076923 8.18452380952381  11.7213541666667 8.79761904761905  11.8924278846154 9.30357142857143  C 12.0635016025641 9.80952380952381  12.2724358974359 10.28125  12.5192307692308 10.71875  C 12.7660256410256 11.15625  13.0044070512821 11.5119047619048  13.234375 11.7857142857143  Z " fill-rule="nonzero" fill="#d9001b" stroke="none" transform="matrix(1 0 0 1 43 222 )" />
  </g>
</svg>