<?xml version="1.0" encoding="utf-8"?>
<svg version="1.1" xmlns:xlink="http://www.w3.org/1999/xlink" width="488px" height="142px" xmlns="http://www.w3.org/2000/svg">
  <g transform="matrix(1 0 0 1 -759 -640 )">
    <path d="M 760 644  A 3 3 0 0 1 763 641 L 1243 641  A 3 3 0 0 1 1246 644 L 1246 778  A 3 3 0 0 1 1243 781 L 763 781  A 3 3 0 0 1 760 778 L 760 644  Z " fill-rule="nonzero" fill="#000000" stroke="none" fill-opacity="0.0196078431372549" />
    <path d="M 759.5 644  A 3.5 3.5 0 0 1 763 640.5 L 1243 640.5  A 3.5 3.5 0 0 1 1246.5 644 L 1246.5 778  A 3.5 3.5 0 0 1 1243 781.5 L 763 781.5  A 3.5 3.5 0 0 1 759.5 778 L 759.5 644  Z " stroke-width="1" stroke-dasharray="9,4" stroke="#d9d9d9" fill="none" stroke-dashoffset="0.5" />
  </g>
</svg>