<?xml version="1.0" encoding="utf-8"?>
<svg version="1.1" xmlns:xlink="http://www.w3.org/1999/xlink" width="30px" height="30px" xmlns="http://www.w3.org/2000/svg">
  <g transform="matrix(1 0 0 1 -642 -986 )">
    <path d="M 657 987  C 664.84 987  671 993.16  671 1001  C 671 1008.84  664.84 1015  657 1015  C 649.16 1015  643 1008.84  643 1001  C 643 993.16  649.16 987  657 987  Z " fill-rule="nonzero" fill="#0079fe" stroke="none" />
    <path d="M 657 987  C 664.84 987  671 993.16  671 1001  C 671 1008.84  664.84 1015  657 1015  C 649.16 1015  643 1008.84  643 1001  C 643 993.16  649.16 987  657 987  Z " stroke-width="2" stroke="#0079fe" fill="none" />
  </g>
</svg>