<?xml version="1.0" encoding="utf-8"?>
<svg version="1.1" xmlns:xlink="http://www.w3.org/1999/xlink" width="30px" height="30px" xmlns="http://www.w3.org/2000/svg">
  <g transform="matrix(1 0 0 1 -644 -1179 )">
    <path d="M 659 1180  C 666.84 1180  673 1186.16  673 1194  C 673 1201.84  666.84 1208  659 1208  C 651.16 1208  645 1201.84  645 1194  C 645 1186.16  651.16 1180  659 1180  Z " fill-rule="nonzero" fill="#ffffff" stroke="none" />
    <path d="M 659 1180  C 666.84 1180  673 1186.16  673 1194  C 673 1201.84  666.84 1208  659 1208  C 651.16 1208  645 1201.84  645 1194  C 645 1186.16  651.16 1180  659 1180  Z " stroke-width="2" stroke="#e4e4e4" fill="none" />
  </g>
</svg>